<svg xmlns="http://www.w3.org/2000/svg" width="256" height="256"><path fill-opacity=".016" d="M0 128.004v128.004l128.25-.254 128.25-.254.254-127.75L257.008 0H0v128.004m.485.496c0 70.4.119 99.053.265 63.672.146-35.38.146-92.98 0-128C.604 29.153.485 58.1.485 128.5" fill="#1976D2" fill-rule="evenodd"/><path fill-opacity=".135" d="M118.112 12.581c-12.794 3.441-24.898 12.912-30.907 24.185C83.766 43.219 81 52.555 81 57.71V61h99v-3.29c0-5.155-2.766-14.491-6.205-20.944-10.319-19.359-34.528-29.875-55.683-24.185M73.357 72.082c-11.81 4.542-20.383 16.699-20.478 29.036-.063 8.179 1.244 13.108 5.08 19.157 5.986 9.439 16.491 14.616 29.791 14.683L96 135V70l-8.75.052c-6.215.037-10.24.625-13.893 2.03M106 117.038c0 37.258.262 47.042 1.25 46.713.904-.3 1.327-4.341 1.527-14.583.229-11.684.536-14.168 1.75-14.168 1.229 0 1.473 2.398 1.473 14.5 0 9 .379 14.5 1 14.5s1-5.5 1-14.5c0-12.222.236-14.5 1.5-14.5s1.5 2.278 1.5 14.5.236 14.5 1.5 14.5 1.5-2.278 1.5-14.5.236-14.5 1.5-14.5 1.5 2.278 1.5 14.5c0 9 .379 14.5 1 14.5s1-5.5 1-14.5c0-12.222.236-14.5 1.5-14.5s1.5 2.278 1.5 14.5.236 14.5 1.5 14.5 1.5-2.278 1.5-14.5.236-14.5 1.5-14.5 1.5 2.278 1.5 14.5c0 9 .379 14.5 1 14.5s1-5.5 1-14.5c0-12.222.236-14.5 1.5-14.5s1.5 2.278 1.5 14.5.236 14.5 1.5 14.5 1.5-2.278 1.5-14.5.236-14.5 1.5-14.5 1.5 2.278 1.5 14.5c0 9 .379 14.5 1 14.5s1-5.5 1-14.5c0-12.222.236-14.5 1.5-14.5s1.5 2.278 1.5 14.5.236 14.5 1.5 14.5 1.5-2.264 1.5-14.372v-14.372l13.75-.453c11.097-.366 14.652-.856 18.426-2.539 6.247-2.787 13.403-9.543 16.654-15.724 2.303-4.376 2.65-6.225 2.641-14.04-.009-7.503-.416-9.825-2.449-13.958-3.246-6.601-8.98-12.162-15.874-15.394L180.5 70.5l-37.25-.296-37.25-.295v47.129M0 210.011v33.997l128.25-.254 128.25-.254.263-34 .263-34-128.513.258L0 176.015v33.996M.45 210c0 18.975.134 26.738.298 17.25.165-9.488.165-25.012 0-34.5C.584 183.262.45 191.025.45 210m47.051-22.624c-1.211.885-2.081 3.113-2.441 6.25-.47 4.088-.923 4.926-2.81 5.194-1.237.175-2.25.707-2.25 1.18s1.013 1.005 2.25 1.18c2.153.306 2.262.782 2.534 11.07.228 8.65.57 10.75 1.75 10.75 1.199 0 1.466-2.002 1.466-11v-11h3c1.65 0 3-.45 3-1s-1.35-1-3-1c-2.807 0-3-.244-3-3.8 0-4.349 1.403-6.2 4.7-6.2 1.378 0 2.3-.601 2.3-1.5 0-1.928-4.921-2.009-7.499-.124M198 204.531c0 15.75.221 18.469 1.5 18.469 1.17 0 1.507-1.376 1.533-6.25l.034-6.25 5.716 6.273c4.103 4.501 6.415 6.266 8.188 6.25 2.237-.021 1.882-.618-3.754-6.304l-6.224-6.28 5.503-5.435c3.027-2.99 5.504-5.746 5.504-6.126 0-2.089-5.175 1.113-9.704 6.003l-5.204 5.619-.046-11.643c-.037-9.397-.335-11.754-1.546-12.219-1.3-.498-1.5 1.888-1.5 17.893m-105.365-4.458c-2.184 1.718-2.635 1.803-2.635.5 0-.865-.675-1.573-1.5-1.573-1.25 0-1.5 2-1.5 12s.25 12 1.5 12c1.214 0 1.5-1.596 1.5-8.365C90 204.481 91.924 201 97.537 201c4.618 0 5.463 2.002 5.463 12.934 0 8.399.147 9.066 2 9.066 1.84 0 2-.667 2-8.351 0-9.249-1.274-14.19-4.039-15.67-2.989-1.6-7.511-1.121-10.326 1.094m40 0c-2.184 1.718-2.635 1.803-2.635.5 0-.912-.85-1.573-2.023-1.573-1.965 0-2.015.509-1.75 17.75.231 14.99.506 17.75 1.773 17.75 1.171 0 1.565-1.616 1.796-7.363.295-7.334.304-7.356 2.33-5.523 4.96 4.489 13.494 1.098 15.947-6.336 1.247-3.779.52-10.873-1.37-13.365-3.221-4.247-9.898-5.121-14.068-1.84m25.615-1.042c-1.238.498-2.25 1.61-2.25 2.472 0 1.24.404 1.351 1.934.532 3.308-1.77 8.869-1.271 10.031.899 2.027 3.789 1.269 4.778-4.215 5.497-6.595.865-9.391 2.659-10.251 6.576-1.496 6.807 5.514 10.953 12.025 7.111 2.788-1.645 3.476-1.761 3.476-.584 0 .806.675 1.466 1.5 1.466 1.238 0 1.5-1.829 1.5-10.461 0-9.474-.207-10.654-2.189-12.5-2.33-2.172-7.537-2.625-11.561-1.008m28.205 1.424c-2.265 2.265-2.455 2.303-2.455.5 0-1.251-.681-1.955-1.89-1.955-1.741 0-1.903.953-2.046 12-.148 11.473-.065 12 1.89 12 1.898 0 2.046-.604 2.046-8.365 0-7.037.34-8.798 2.143-11.089 1.547-1.967 2.798-2.599 4.5-2.274 1.793.343 2.357.005 2.357-1.411 0-2.689-3.588-2.364-6.545.594M58 208.277c0 10.15 1.129 13.061 5.745 14.816 2.739 1.042 9.255-.487 9.255-2.171 0-.507.45-.922 1-.922s1 .675 1 1.5.675 1.5 1.5 1.5c1.25 0 1.5-2 1.5-12s-.25-12-1.5-12c-1.199 0-1.5 1.493-1.5 7.435 0 4.089-.441 8.595-.98 10.012-2 5.262-9.619 5.924-11.849 1.03-.644-1.414-1.171-6.15-1.171-10.524 0-6.403-.292-7.953-1.5-7.953-1.226 0-1.5 1.697-1.5 9.277m74.073-4.642c-1.504 1.912-2.073 4.087-2.073 7.927 0 4.527.381 5.593 2.635 7.365 3.495 2.75 6.911 2.618 9.91-.382 3.285-3.284 3.553-12.447.455-15.545-2.978-2.978-8.33-2.667-10.927.635m31.54 7.53c-2.687.389-5.31 1.132-5.828 1.65-1.392 1.392-.528 6.332 1.31 7.481 3.946 2.469 10.416-2.521 9.728-7.503-.304-2.201-.607-2.296-5.21-1.628" fill="#1976D2" fill-rule="evenodd"/><path fill-opacity=".212" d="M120.411 12.484c-20.788 4.523-35.627 21.06-38.823 43.266L80.976 60h98.986l-.605-4.75c-2.74-21.517-18.163-38.345-39.235-42.812-8.007-1.697-11.741-1.688-19.711.046M78.147 71.055C69.226 72.85 59.903 80.551 55.814 89.5c-1.772 3.879-2.284 6.794-2.284 13 0 9.463 2.117 14.992 8.314 21.715 6.284 6.818 11.852 9.125 23.534 9.754 6.221.334 10.021.157 10.265-.479.213-.555.267-14.955.122-32L95.5 70.5l-6.5-.161c-3.575-.088-8.459.234-10.853.716m29.315 45.445c-.001 25.85.129 36.568.287 23.819.158-12.75.158-33.9 0-47-.158-13.101-.287-2.669-.287 23.181m11 0c-.001 25.85.129 36.568.287 23.819.158-12.75.158-33.9 0-47-.158-13.101-.287-2.669-.287 23.181m11 0c-.001 25.85.129 36.568.287 23.819.158-12.75.158-33.9 0-47-.158-13.101-.287-2.669-.287 23.181m11 0c-.001 25.85.129 36.568.287 23.819.158-12.75.158-33.9 0-47-.158-13.101-.287-2.669-.287 23.181m11 0c-.001 25.85.129 36.568.287 23.819.158-12.75.158-33.9 0-47-.158-13.101-.287-2.669-.287 23.181M112 117c0 30 .348 46 1 46s1-16 1-46-.348-46-1-46-1 16-1 46m11 0c0 30 .348 46 1 46s1-16 1-46-.348-46-1-46-1 16-1 46m11 0c0 30 .348 46 1 46s1-16 1-46-.348-46-1-46-1 16-1 46m11 0c0 30 .348 46 1 46s1-16 1-46-.348-46-1-46-1 16-1 46M0 210.511v33.497l128.25-.254 128.25-.254.263-33.5.263-33.5-128.513.258L0 177.015v33.496m.449-.011c0 18.7.135 26.209.3 16.686.164-9.523.164-24.823-.001-34S.449 191.8.449 210.5m48.908-24.508c-3.086 1.245-5.357 4.946-5.357 8.731 0 2.61-.407 3.277-2 3.277-1.333 0-2 .667-2 2 0 1.322.667 2 1.966 2 1.815 0 1.988.824 2.25 10.738.246 9.299.519 10.783 2.034 11.073 1.581.303 1.75-.731 1.75-10.738V202h3c2.333 0 3-.444 3-2s-.667-2-3-2c-2.65 0-3-.341-3-2.929 0-3.518 2.594-6.411 5.149-5.742 2.343.612 2.592-2.831.269-3.722-.87-.334-1.657-.578-1.75-.544-.092.035-1.132.453-2.311.929m147.871 18.686c.261 18.065.352 18.822 2.272 18.822 1.767 0 2-.667 2-5.727v-5.727l6.027 5.977c3.734 3.703 6.873 5.977 8.25 5.977 2.106 0 3.089-1.45 1.469-2.167-.414-.183-3.196-2.938-6.181-6.121l-5.427-5.788 5.9-5.962c5.318-5.375 5.659-5.962 3.46-5.962-1.616 0-4.307 1.849-7.969 5.474l-5.529 5.473v-11.223c0-10.911-.063-11.233-2.272-11.546l-2.273-.323.273 18.823m-101.876-6.706c-1.181.488-2.445 1.369-2.809 1.958-.97 1.57-2.543 1.304-2.543-.43 0-.841-.892-1.5-2.03-1.5-1.948 0-2.018.512-1.75 12.738.246 11.205.49 12.778 2.03 13.073 1.54.295 1.75-.557 1.75-7.088 0-4.084.497-8.851 1.105-10.595 1.811-5.194 6.383-6.64 9.895-3.128 1.719 1.719 2 3.333 2 11.5 0 8.833.14 9.5 2 9.5 1.872 0 2-.667 2-10.444 0-9.419-.221-10.692-2.25-12.963-2.574-2.88-6.275-3.912-9.398-2.621m39.171.568c-1.638.867-3.318 2.113-3.735 2.769-.473.744-.763.346-.773-1.059-.01-1.578-.612-2.25-2.015-2.25-1.928 0-2 .667-2 18.5s.072 18.5 2 18.5c1.811 0 2-.667 2-7.057v-7.056l2.223 1.556c2.855 2 8.702 1.998 11.56-.004 4.665-3.267 6.722-12.35 4.262-18.822-1.895-4.982-8.804-7.576-13.522-5.077m24.477-.245c-2.401.827-3.6 1.912-3.82 3.455-.378 2.663-.253 2.69 3.456.756 5.089-2.654 8.052-1.817 9.673 2.734.647 1.814.211 2.004-7.384 3.215-10.77 1.717-10.645 15.545.141 15.545 2.059 0 4.239-.663 4.934-1.5 1.617-1.948 3-1.914 3 .073 0 .962.68 1.441 1.75 1.232 1.536-.3 1.75-1.648 1.75-11.048 0-9.398-.245-10.942-2-12.634-2.673-2.576-7.225-3.299-11.5-1.828m-101.333.372c-1.043 1.042-.771 14.419.377 18.554.569 2.046 2.016 4.408 3.217 5.25 2.726 1.909 7.748 1.974 10.264.134 1.649-1.205 2.063-1.183 3.047.163.671.918 1.827 1.293 2.814.914 1.464-.562 1.64-2.196 1.395-12.912-.272-11.865-.355-12.281-2.531-12.59-2.197-.312-2.25-.096-2.25 9.095C74 217.898 72.878 220 67.206 220 62.875 220 62 217.826 62 207.066c0-8.125-.19-9.066-1.833-9.066-1.009 0-2.134.3-2.5.667M180 211c0 12.333.103 13 2 13 1.823 0 2-.667 2-7.532 0-4.315.619-9.013 1.449-11 1.204-2.883 1.964-3.468 4.5-3.468 2.384 0 3.051-.437 3.051-2 0-1.467-.667-2-2.5-2-1.375 0-3.4.9-4.5 2l-2 2v-2c0-1.333-.667-2-2-2-1.897 0-2 .667-2 13m-45.636-8.83c-3.979 1.926-5.688 9.446-3.214 14.146 1.55 2.944 2.79 3.651 6.445 3.669 4.231.021 6.596-2.915 7.171-8.9.414-4.311.148-5.262-2.1-7.51-2.731-2.731-4.831-3.086-8.302-1.405m27.243 9.698c-6.027 1.316-5.993 7.32.045 7.931 3.368.34 5.823-1.818 6.878-6.049.608-2.435.416-2.736-1.672-2.632-1.297.065-3.66.403-5.251.75" fill="#1976D2" fill-rule="evenodd"/><path fill-opacity=".129" d="M118.585 13.119c-7.238 1.698-16.679 7.135-22.505 12.961-8.172 8.172-13.982 20.849-14.056 30.67L82 60h97v-3.29c0-1.809-.692-5.947-1.538-9.195-4.214-16.177-17.807-29.765-33.997-33.982-6.406-1.669-18.661-1.872-24.88-.414M79.75 71.662c.688.278 1.813.278 2.5 0 .688-.277.125-.504-1.25-.504s-1.937.227-1.25.504M94.443 102.5c0 16.5.137 23.39.305 15.312.167-8.079.168-21.579 0-30-.167-8.422-.304-1.812-.305 14.688M61.924 80.75 59.5 83.5l2.75-2.424C64.82 78.81 65.459 78 64.674 78c-.179 0-1.416 1.237-2.75 2.75M62.5 125c.995 1.1 2.035 2 2.31 2 .275 0-.315-.9-1.31-2-.995-1.1-2.035-2-2.31-2-.275 0 .315.9 1.31 2m21.25 8.723c1.787.222 4.713.222 6.5 0 1.787-.221.325-.403-3.25-.403s-5.037.182-3.25.403" fill="#1976D2" fill-rule="evenodd"/></svg>